# xmcd
#
# Track frame offsets:
#	150
#	17321
#	31037
#	52750
#	63747
#	84833
#	99215
#	108717
#	124836
#	137317
#	155312
#	175145
#	195645
#
# Disc length: 2761 seconds
#
# Revision: 1
# Processed by: cddbd v1.5.2PL0 Copyright (c) Steve Scherf et al.
# Submitted via: audiograbber 1.83.01
#
DISCID=910ac70d
DTITLE=Waylon Jennings - Return of the Outlaw (Abbott TX 1973 FM)
DYEAR=1973
DGENRE=Country
TTITLE0=Lonesome, On'ry and Mean
TTITLE1=Good Hearted Woman
TTITLE2=Louisiana Woman
TTITLE3=Pretend I Never Happened
TTITLE4=Me and Bobby McGee
TTITLE5=Goodtime Charlie's Got the Blues
TTITLE6=Amanda
TTITLE7=Laid Back Country Picker
TTITLE8=You Asked Me To
TTITLE9=Honky Tonk Heroes
TTITLE10=The Last Letter
TTITLE11=T for Texas
TTITLE12=Only Daddy That'll Walk the Line
EXTD=
EXTT0=
EXTT1=
EXTT2=
EXTT3=
EXTT4=
EXTT5=
EXTT6=
EXTT7=
EXTT8=
EXTT9=
EXTT10=
EXTT11=
EXTT12=
PLAYORDER=
